<svg width="200" height="200" viewBox="0 0 200 200" fill="none" xmlns="http://www.w3.org/2000/svg">
<rect x="100" y="100" width="100" height="100" transform="rotate(-180 100 100)" fill="#2C6269"/>
<path fill-rule="evenodd" clip-rule="evenodd" d="M100 200C155.228 200 200 155.228 200 100C200 44.7715 155.228 0 100 0C44.7715 0 0 44.7715 0 100C0 155.228 44.7715 200 100 200ZM100 133C118.225 133 133 118.225 133 100C133 81.7746 118.225 67 100 67C81.7746 67 67 81.7746 67 100C67 118.225 81.7746 133 100 133Z" fill="#F67E7E"/>
<path fill-rule="evenodd" clip-rule="evenodd" d="M100 6H0V10H100V6ZM100 14H0V18H100V14ZM0 22H100V26H0V22ZM100 30H0V34H100V30ZM0 38H100V42H0V38ZM100 46H0V50H100V46Z" fill="#79C8C7"/>
</svg>
