<svg width="200" height="221" viewBox="0 0 200 221" fill="none" xmlns="http://www.w3.org/2000/svg">
<rect x="100" y="100" width="100" height="100" transform="rotate(-180 100 100)" fill="#2C6269"/>
<path fill-rule="evenodd" clip-rule="evenodd" d="M100 221C155.228 221 200 176.228 200 121C200 65.7715 155.228 21 100 21C44.7715 21 0 65.7715 0 121C0 176.228 44.7715 221 100 221ZM100 154C118.225 154 133 139.225 133 121C133 102.775 118.225 88 100 88C81.7746 88 67 102.775 67 121C67 139.225 81.7746 154 100 154Z" fill="#F67E7E"/>
<path fill-rule="evenodd" clip-rule="evenodd" d="M100 0H0V4H100V0ZM100 8H0V12H100V8ZM0 16H100V20H0V16ZM100 24H0V28H100V24ZM0 32H100V36H0V32ZM100 40H0V44H100V40Z" fill="#79C8C7"/>
</svg>
