<svg width="200" height="200" viewBox="0 0 200 200" fill="none" xmlns="http://www.w3.org/2000/svg">
<g id="Group 8">
<rect id="Rectangle" x="111" y="100" width="100" height="100" transform="rotate(-180 111 100)" fill="#2C6269"/>
<path id="Combined Shape Copy" fill-rule="evenodd" clip-rule="evenodd" d="M100 200C155.228 200 200 155.228 200 100C200 44.7715 155.228 0 100 0C44.7715 0 0 44.7715 0 100C0 155.228 44.7715 200 100 200ZM111 133C129.225 133 144 118.225 144 100C144 81.7746 129.225 67 111 67C92.7746 67 78 81.7746 78 100C78 118.225 92.7746 133 111 133Z" fill="#014E56"/>
<path id="Combined Shape" fill-rule="evenodd" clip-rule="evenodd" d="M111 100H11V104H111V100ZM111 108H11V112H111V108ZM11 116H111V120H11V116ZM111 124H11V128H111V124ZM11 132H111V136H11V132ZM111 140H11V144H111V140Z" fill="#79C8C7"/>
<path id="Combined Shape_2" fill-rule="evenodd" clip-rule="evenodd" d="M11 0H15V4H11V0ZM22 0H18V4H22V0ZM22 8H18V12H22V8ZM18 16H22V20H18V16ZM22 24H18V28H22V24ZM18 32H22V36H18V32ZM22 40H18V44H22V40ZM25 0H29V4H25V0ZM25 8H29V12H25V8ZM29 16H25V20H29V16ZM25 24H29V28H25V24ZM29 32H25V36H29V32ZM25 40H29V44H25V40ZM11 8H15V12H11V8ZM32 0H36V4H32V0ZM32 8H36V12H32V8ZM36 16H32V20H36V16ZM32 24H36V28H32V24ZM36 32H32V36H36V32ZM32 40H36V44H32V40ZM11 16H15V20H11V16ZM39 0H43V4H39V0ZM39 8H43V12H39V8ZM43 16H39V20H43V16ZM39 24H43V28H39V24ZM43 32H39V36H43V32ZM39 40H43V44H39V40ZM11 24H15V28H11V24ZM46 0H50V4H46V0ZM46 8H50V12H46V8ZM50 16H46V20H50V16ZM46 24H50V28H46V24ZM50 32H46V36H50V32ZM46 40H50V44H46V40ZM11 32H15V36H11V32ZM53 0H57V4H53V0ZM53 8H57V12H53V8ZM57 16H53V20H57V16ZM53 24H57V28H53V24ZM57 32H53V36H57V32ZM53 40H57V44H53V40ZM11 40H15V44H11V40ZM60 0H64V4H60V0ZM60 8H64V12H60V8ZM64 16H60V20H64V16ZM60 24H64V28H60V24ZM64 32H60V36H64V32ZM60 40H64V44H60V40Z" fill="#79C8C7"/>
</g>
</svg>
